<?xml version="1.0" encoding="UTF-8"?>
<svg xmlns="http://www.w3.org/2000/svg" xmlns:xlink="http://www.w3.org/1999/xlink" width="45px" height="45px" viewBox="0 0 45 45" version="1.1">
<g id="surface1">
<path style="fill-rule:evenodd;fill:rgb(100%,100%,100%);fill-opacity:1;stroke-width:1.32;stroke-linecap:round;stroke-linejoin:miter;stroke:rgb(0%,0%,0%);stroke-opacity:1;stroke-miterlimit:4;" d="M 14.440958 29.499 C 14.661416 31.17925 11.348583 33.559604 9.939437 34.501021 C 8.208541 35.659917 8.199604 37.200146 6.939416 37.000542 C 6.337624 36.455354 7.755708 34.980667 6.939416 34.998542 C 6.361458 34.998542 7.130083 36.100833 6.438916 36.500042 C 5.860958 36.500042 3.939395 36.89925 3.939395 34.000521 C 3.939395 32.799916 7.439916 27.499979 7.439916 27.499979 C 7.439916 27.499979 8.375374 26.418541 8.440916 25.500958 C 8.020854 24.925979 8.181729 24.020312 8.440916 23.498958 C 8.804374 22.769062 9.939437 25.000458 9.939437 25.000458 L 10.940437 25.000458 C 10.940437 25.000458 11.440937 23.498958 12.438958 23.001437 C 12.957333 22.74225 12.939458 25.000458 12.939458 25.000458 C 19.011 25.578416 22.231479 29.370896 21.939521 41.499083 L 9.438937 41.499083 C 9.438937 36.601333 14.241354 37.798958 13.940458 31.0005 " transform="matrix(1.311189,0,0,1.311189,4.983147,-13.741257)"/>
<path style=" stroke:none;fill-rule:nonzero;fill:rgb(0%,0%,0%);fill-opacity:1;" d="M 12.195312 30.183594 C 12.195312 30.546875 11.902344 30.839844 11.539062 30.839844 C 11.175781 30.839844 10.882812 30.546875 10.882812 30.183594 C 10.882812 29.820312 11.175781 29.527344 11.539062 29.527344 C 11.902344 29.527344 12.195312 29.820312 12.195312 30.183594 Z M 12.195312 30.183594 "/>
<path style=" stroke:none;fill-rule:nonzero;fill:rgb(0%,0%,0%);fill-opacity:1;" d="M 17.578125 25.960938 C 17.042969 26.875 16.09375 27.316406 15.453125 26.945312 C 14.8125 26.578125 14.71875 25.535156 15.242188 24.613281 C 15.777344 23.699219 16.726562 23.257812 17.367188 23.628906 C 18.007812 24 18.101562 25.039062 17.578125 25.960938 Z M 17.578125 25.960938 "/>
<path style="fill-rule:evenodd;fill:rgb(100%,100%,100%);fill-opacity:1;stroke-width:0.8;stroke-linecap:butt;stroke-linejoin:round;stroke:rgb(0%,0%,0%);stroke-opacity:1;stroke-miterlimit:4;" d="M 17.999132 17.999826 L 22.000694 9.998958 L 17.999132 14.000521 L 17.999132 7.999306 L 14.999653 13.124826 L 13 8.125694 L 11.000347 13.124826 L 8.000868 7.999306 L 8.000868 14.000521 L 3.999306 9.998958 L 7.001042 17.999826 C 7.001042 17.999826 9.034549 15.499132 13 15.499132 C 16.965451 15.499132 17.999132 17.999826 17.999132 17.999826 Z M 17.999132 17.999826 " transform="matrix(1.730769,0,0,1.730769,0,-6.923077)"/>
<path style="fill-rule:nonzero;fill:rgb(100%,100%,100%);fill-opacity:1;stroke-width:0.75;stroke-linecap:butt;stroke-linejoin:miter;stroke:rgb(0%,0%,0%);stroke-opacity:1;stroke-miterlimit:4;" d="M 5.500174 9.998958 C 5.500174 10.829514 4.827604 11.499826 3.999306 11.499826 C 3.171007 11.499826 2.500694 10.829514 2.500694 9.998958 C 2.500694 9.17066 3.171007 8.500347 3.999306 8.500347 C 4.827604 8.500347 5.500174 9.17066 5.500174 9.998958 Z M 5.500174 9.998958 " transform="matrix(1.730769,0,0,1.730769,0,-6.923077)"/>
<path style="fill-rule:nonzero;fill:rgb(100%,100%,100%);fill-opacity:1;stroke-width:0.75;stroke-linecap:butt;stroke-linejoin:miter;stroke:rgb(0%,0%,0%);stroke-opacity:1;stroke-miterlimit:4;" d="M 5.499479 9.999306 C 5.499479 10.827604 4.829167 11.500174 4.000868 11.500174 C 3.172569 11.500174 2.5 10.827604 2.5 9.999306 C 2.5 9.171007 3.172569 8.500694 4.000868 8.500694 C 4.829167 8.500694 5.499479 9.171007 5.499479 9.999306 Z M 5.499479 9.999306 " transform="matrix(1.730769,0,0,1.730769,6.923077,-10.384615)"/>
<path style="fill-rule:nonzero;fill:rgb(100%,100%,100%);fill-opacity:1;stroke-width:0.75;stroke-linecap:butt;stroke-linejoin:miter;stroke:rgb(0%,0%,0%);stroke-opacity:1;stroke-miterlimit:4;" d="M 5.500868 9.999306 C 5.500868 10.827604 4.828299 11.500174 4 11.500174 C 3.171701 11.500174 2.499132 10.827604 2.499132 9.999306 C 2.499132 9.171007 3.171701 8.500694 4 8.500694 C 4.828299 8.500694 5.500868 9.171007 5.500868 9.999306 Z M 5.500868 9.999306 " transform="matrix(1.730769,0,0,1.730769,15.576923,-10.384615)"/>
<path style="fill-rule:nonzero;fill:rgb(100%,100%,100%);fill-opacity:1;stroke-width:0.75;stroke-linecap:butt;stroke-linejoin:miter;stroke:rgb(0%,0%,0%);stroke-opacity:1;stroke-miterlimit:4;" d="M 5.500174 9.998958 C 5.500174 10.829514 4.827604 11.499826 3.999306 11.499826 C 3.171007 11.499826 2.500694 10.829514 2.500694 9.998958 C 2.500694 9.17066 3.171007 8.500347 3.999306 8.500347 C 4.827604 8.500347 5.500174 9.17066 5.500174 9.998958 Z M 5.500174 9.998958 " transform="matrix(-1.730769,0,0,1.730769,45,-6.923077)"/>
<path style="fill-rule:nonzero;fill:rgb(100%,100%,100%);fill-opacity:1;stroke-width:0.75;stroke-linecap:butt;stroke-linejoin:miter;stroke:rgb(0%,0%,0%);stroke-opacity:1;stroke-miterlimit:4;" d="M 5.499479 9.999306 C 5.499479 10.827604 4.829167 11.500174 4.000868 11.500174 C 3.172569 11.500174 2.5 10.827604 2.5 9.999306 C 2.5 9.171007 3.172569 8.500694 4.000868 8.500694 C 4.829167 8.500694 5.499479 9.171007 5.499479 9.999306 Z M 5.499479 9.999306 " transform="matrix(-1.730769,0,0,1.730769,38.076923,-10.384615)"/>
</g>
</svg>
